<?xml version="1.0" encoding="utf-8"?>
<!-- Generator: Adobe Illustrator 16.0.0, SVG Export Plug-In . SVG Version: 6.00 Build 0)  -->
<!DOCTYPE svg PUBLIC "-//W3C//DTD SVG 1.1//EN" "http://www.w3.org/Graphics/SVG/1.1/DTD/svg11.dtd">
<svg version="1.1" xmlns="http://www.w3.org/2000/svg" xmlns:xlink="http://www.w3.org/1999/xlink" x="0px" y="0px" width="640px"
	 height="640px" viewBox="0 0 640 640" enable-background="new 0 0 640 640" xml:space="preserve">
<g id="base" display="none">
	<rect x="-243.779" display="inline" width="1136" height="640"/>
</g>
<g id="blue" display="none">
	<g display="inline">
		<g>
			<path fill="#FFFFFF" d="M60.015,346.063c113.685-1.038,227.29,3.602,340.962,3.567c64.418-0.02,128.809-2.045,193.09-6.269
				c11.418-0.75,21-8.984,21-21c0-10.879-9.565-21.751-21-21c-113.188,7.437-226.312,6.553-339.646,4.328
				c-64.797-1.272-129.595-2.218-194.406-1.626c-11.446,0.104-21,9.474-21,21C39.015,336.432,48.567,346.168,60.015,346.063
				L60.015,346.063z"/>
		</g>
	</g>
</g>
<g id="red" display="none">
	<g display="inline">
		<g>
			<path fill="#FFFFFF" d="M311.04,73.795c-2.376,124.233-2.253,248.496-3.435,372.742c-0.359,37.771-0.841,75.541-1.564,113.307
				c-0.219,11.448,9.718,21,21,21c11.613,0,20.781-9.557,21-21c2.376-124.232,2.253-248.496,3.436-372.743
				c0.358-37.771,0.841-75.541,1.563-113.306c0.219-11.448-9.718-21-21-21C320.427,52.795,311.259,62.352,311.04,73.795
				L311.04,73.795z"/>
		</g>
	</g>
</g>
<g id="green" display="none">
	<g display="inline">
		<g>
			<path fill="#FFFFFF" d="M61.417,118.931c2.682,1.978,5.351,3.972,8.009,5.982c1.309,0.99,2.611,1.99,3.913,2.99
				c-4.133-3.173,0.208,0.177,0.878,0.701c5.404,4.229,10.732,8.556,16.015,12.936c9.699,8.041,19.173,16.35,28.516,24.8
				c17.747,16.051,34.916,32.724,52.273,49.191c38.013,36.064,77.817,70.007,122.115,98.193
				c19.942,12.689,41.631,22.654,60.971,36.233c1.642,1.152,3.262,2.337,4.876,3.529c1.377,1.017,7.396,5.681,1.546,1.129
				c3.743,2.912,7.41,5.922,11.039,8.975c7.537,6.341,14.843,12.955,22.034,19.684c31.752,29.71,61.113,61.902,90.729,93.703
				c15.589,16.739,31.179,33.502,47.46,49.572c12.19,12.032,25.018,24.414,39.677,33.426c9.758,5.999,23.047,2.171,28.731-7.534
				c5.882-10.041,2.2-22.748-7.534-28.731c-2.108-1.297-4.146-2.695-6.146-4.155c-0.552-0.402-1.097-0.815-1.642-1.228
				c-2.602-1.967,4.602,3.588,1.997,1.535c-1.39-1.095-2.754-2.223-4.11-3.358c-5.629-4.712-11.005-9.723-16.298-14.806
				c-13.351-12.819-26.08-26.286-38.75-39.773c-29.757-31.678-58.924-63.939-89.922-94.425
				c-14.155-13.921-28.723-27.482-44.207-39.925c-7.713-6.197-15.603-12.221-23.855-17.688
				c-8.777-5.812-18.225-10.483-27.384-15.647c-24.856-14.014-48.715-29.75-71.434-47.012c-0.747-0.568-4.985-3.849-0.703-0.528
				c-1.223-0.949-2.44-1.906-3.656-2.864c-2.406-1.893-4.792-3.812-7.171-5.738c-5.047-4.087-10.023-8.262-14.958-12.484
				c-9.198-7.869-18.19-15.976-27.082-24.188c-20.646-19.068-40.666-38.803-61.323-57.86c-23.396-21.584-47.784-42-73.407-60.899
				c-9.233-6.811-23.41-1.552-28.732,7.534C47.632,100.87,52.224,112.151,61.417,118.931L61.417,118.931z"/>
		</g>
	</g>
</g>
<g id="yellow">
	<g>
		<g>
			<path fill="#FFFFFF" d="M82.615,559.975c47.178-30.646,91.757-65.349,131.896-104.813c29.23-28.74,55.569-60.097,82.698-90.771
				c12.488-14.12,25.27-27.986,38.772-41.147c6.911-6.736,14.036-13.252,21.35-19.549c3.618-3.115,7.301-6.154,11.021-9.145
				c0.944-0.76,1.896-1.511,2.848-2.263c-8.083,6.383,4.127-3.208,2.392-1.853c1.728-1.349,3.432-2.726,5.119-4.126
				c31.618-26.246,58.16-58.666,86.357-88.401c20.533-21.653,41.664-42.988,65.154-61.466c2.924-2.3-3.99,3.022,0.639-0.467
				c1.291-0.974,2.597-1.927,3.905-2.877c2.556-1.856,5.159-3.646,7.786-5.399c5.292-3.53,10.768-6.781,16.404-9.726
				c2.501-1.306,5.054-2.511,7.631-3.657c3.348-1.489-5.345,2.146-0.283,0.158c1.552-0.609,3.125-1.16,4.703-1.693
				c2.45-0.828,4.944-1.518,7.456-2.131c1.223-0.298,2.457-0.546,3.692-0.786c0.611-0.115,1.224-0.222,1.838-0.321
				c3.798-0.639-5.731,0.693-1.928,0.256c11.369-1.307,21-8.564,21-21c0-10.457-9.603-22.31-21-21
				c-42.571,4.892-77.597,33.535-107.995,61.712c-32.843,30.443-62.007,64.53-93.104,96.69
				c-6.674,6.902-13.467,13.692-20.483,20.247c-3.019,2.821-6.098,5.576-9.23,8.269c-1.466,1.26-2.955,2.493-4.453,3.713
				c-0.723,0.588-1.454,1.166-2.185,1.743c6.466-5.105-0.969,0.733-3.114,2.417c-15.285,11.999-29.627,25.15-43.281,38.966
				c-27.159,27.482-51.5,57.583-77.404,86.215c-21.02,23.233-43.1,45.468-66.596,66.204c-6.632,5.854-13.388,11.567-20.223,17.183
				c-3.37,2.769-6.772,5.497-10.188,8.208c-1.748,1.387-3.506,2.761-5.267,4.133c-1.854,1.438-1.78,1.382,0.223-0.172
				c-1.361,1.048-2.728,2.086-4.096,3.124c-17.259,13.104-35.082,25.457-53.253,37.261c-9.58,6.223-13.525,18.505-7.534,28.731
				C59.46,561.963,73.005,566.217,82.615,559.975L82.615,559.975z"/>
		</g>
	</g>
</g>
</svg>
